<svg id="Layer_1" enable-background="new 0 0 512 512" height="512" viewBox="0 0 512 512" width="512" xmlns="http://www.w3.org/2000/svg"><g><path d="m376.5 254.933h-104.433c-8.284 0-15-6.716-15-15v-104.433c0-74.715 60.785-135.5 135.5-135.5h104.433c8.284 0 15 6.716 15 15v104.433c0 74.715-60.785 135.5-135.5 135.5z" fill="#d9ff7d"/><path d="m272.067 254.933h104.433c74.715 0 135.5-60.785 135.5-135.5v-104.433c0-4.142-1.679-7.892-4.393-10.607l-246.147 246.147c2.715 2.714 6.465 4.393 10.607 4.393z" fill="#97db4f"/><path d="m47.133 126.4c-8.284 0-15-6.716-15-15v-96.4c0-8.284 6.716-15 15-15s15 6.716 15 15v96.4c0 8.284-6.716 15-15 15z" fill="#334a5e"/><path d="m143.533 126.4c-8.284 0-15-6.716-15-15v-96.4c0-8.284 6.716-15 15-15s15 6.716 15 15v96.4c0 8.284-6.716 15-15 15z" fill="#1f2a4d"/><path d="m440.767 512h-265.1c-52.653 0-95.333-42.602-95.333-95.333v-176.734c0-8.284 6.716-15 15-15s15 6.716 15 15v176.733c0 36.084 29.196 65.333 65.333 65.333h265.1c22.736.001 41.233-18.496 41.233-41.232 0-22.787-18.428-41.233-41.233-41.233h-108.812c-40.468 0-76.624-24.159-92.111-61.549-15.487-37.389-7.002-80.04 21.617-108.658l112.466-112.467c5.857-5.858 15.355-5.858 21.213 0s5.858 15.355 0 21.213l-112.467 112.467c-20.008 20.008-25.94 49.826-15.113 75.964 10.827 26.139 36.104 43.029 64.395 43.029h108.812c39.348 0 71.233 31.825 71.233 71.233 0 39.279-31.955 71.234-71.233 71.234z" fill="#66a182"/><path d="m95.333 254.933c-52.652 0-95.333-42.602-95.333-95.333v-48.2c0-8.284 6.716-15 15-15h160.667c8.284 0 15 6.716 15 15v48.2c0 52.646-42.595 95.333-95.334 95.333z" fill="#486a6f"/><path d="m175.667 96.4h-80.334v158.533c52.739 0 95.333-42.687 95.333-95.333v-48.2c.001-8.284-6.715-15-14.999-15z" fill="#334a5e"/></g></svg>